<svg width="92" height="129" viewBox="0 0 92 129" fill="none" xmlns="http://www.w3.org/2000/svg">
<rect x="0.878906" y="0.497559" width="91.1196" height="127.567" rx="4.17631" fill="white"/>
<rect x="0.878906" y="0.497559" width="91.1196" height="127.567" rx="4.17631" fill="white"/>
<path d="M76.0668 112.318C76.0668 110.94 76.4432 109.92 77.2098 109.287C77.9764 108.653 78.9243 108.322 80.0394 108.322C81.0987 108.322 82.0187 108.639 82.8271 109.287C83.6217 109.92 84.0259 110.94 84.0259 112.318V114.177H82.1581V112.304C82.1581 111.284 81.949 110.582 81.5308 110.182C81.1127 109.783 80.6248 109.604 80.0394 109.604C79.3982 109.604 78.8825 109.796 78.4922 110.182C78.1019 110.568 77.9207 111.271 77.9207 112.304V121.231H76.0529V112.318H76.0668Z" fill="#222222"/>
<path d="M78.2797 100.604L78.4238 100.063L77.8652 100.026C76.8157 99.9543 75.9862 99.0799 75.9862 98.0121C75.9862 96.8976 76.8897 95.9941 78.0043 95.9941C78.7986 95.9941 79.4866 96.4529 79.8161 97.1221L80.2299 97.9625L80.6437 97.1221C80.9732 96.4529 81.6612 95.9941 82.4556 95.9941C83.5701 95.9941 84.4736 96.8976 84.4736 98.0121C84.4736 99.0799 83.6441 99.9543 82.5946 100.026L82.036 100.063L82.1801 100.604C82.2243 100.77 82.248 100.945 82.248 101.126C82.248 102.24 81.3445 103.144 80.2299 103.144C79.1153 103.144 78.2118 102.24 78.2118 101.126C78.2118 100.945 78.2355 100.77 78.2797 100.604Z" fill="#2C2C2C"/>
<path d="M16.8111 16.245C16.8111 17.6226 16.4347 18.6421 15.6681 19.2758C14.9015 19.9095 13.9536 20.2401 12.8385 20.2401C11.7792 20.2401 10.8592 19.9233 10.0508 19.2758C9.25628 18.6421 8.85205 17.6226 8.85205 16.245V14.3851H10.7198V16.2588C10.7198 17.2782 10.9289 17.9808 11.3471 18.3804C11.7652 18.7799 12.2531 18.9589 12.8385 18.9589C13.4797 18.9589 13.9954 18.7661 14.3857 18.3804C14.776 17.9946 14.9572 17.292 14.9572 16.2588V7.33154H16.825V16.245H16.8111Z" fill="#222222"/>
<path d="M14.5983 27.9583L14.4541 28.4993L15.0128 28.5372C16.0622 28.6084 16.8918 29.4828 16.8918 30.5506C16.8918 31.6652 15.9882 32.5687 14.8737 32.5687C14.0794 32.5687 13.3914 32.1098 13.0619 31.4407L12.648 30.6002L12.2342 31.4407C11.9047 32.1098 11.2167 32.5687 10.4224 32.5687C9.30782 32.5687 8.4043 31.6652 8.4043 30.5506C8.4043 29.4828 9.23384 28.6084 10.2833 28.5372L10.8419 28.4993L10.6978 27.9583C10.6536 27.7925 10.6299 27.6179 10.6299 27.437C10.6299 26.3225 11.5335 25.4189 12.648 25.4189C13.7626 25.4189 14.6661 26.3225 14.6661 27.437C14.6661 27.6179 14.6424 27.7925 14.5983 27.9583Z" fill="#2C2C2C"/>
<path d="M53.9362 60.3799L53.3818 62.4609L55.5305 62.6067C59.5668 62.8805 62.7574 66.2436 62.7574 70.3504C62.7574 74.6372 59.2823 78.1123 54.9955 78.1123C51.9405 78.1123 49.2943 76.3475 48.027 73.7737L46.4353 70.5412L44.8437 73.7737C43.5764 76.3475 40.9302 78.1123 37.8751 78.1123C33.5884 78.1123 30.1133 74.6372 30.1133 70.3504C30.1133 66.2436 33.3038 62.8805 37.3402 62.6067L39.4888 62.4609L38.9344 60.3799C38.7645 59.7423 38.6735 59.0707 38.6735 58.3751C38.6735 54.0884 42.1486 50.6133 46.4353 50.6133C50.7221 50.6133 54.1972 54.0884 54.1972 58.3751C54.1972 59.0707 54.1061 59.7423 53.9362 60.3799Z" fill="#2C2C2C"/>
</svg>
