<svg width="92" height="129" viewBox="0 0 92 129" fill="none" xmlns="http://www.w3.org/2000/svg">
<rect x="0.644531" y="0.497559" width="91.1196" height="127.567" rx="4.17631" fill="white"/>
<rect x="0.644531" y="0.497559" width="91.1196" height="127.567" rx="4.17631" fill="white"/>
<path d="M82.2987 121.203V115.048L79.4485 118.265C78.4285 119.407 77.8976 120.284 77.8557 120.911L77.8278 121.203H75.9556L75.9835 120.771C76.0534 120.047 76.724 118.961 78.0094 117.513L79.7419 115.536L77.2549 112.291C76.1372 110.843 75.5364 109.701 75.4805 108.893L75.4386 108.322H77.3108L77.3388 108.768C77.3946 109.52 77.8557 110.467 78.7359 111.595L80.9854 114.505L82.2987 113.015V108.336H84.1709V121.231H82.2987V121.203Z" fill="#222222"/>
<path d="M83.2392 100.145C84.0548 99.1495 84.2482 97.7602 83.3535 96.8503C82.3866 95.8669 80.9149 96.1519 80.022 97.06C79.1291 96.1519 77.6575 95.8669 76.6905 96.8503C75.7959 97.7602 75.9892 99.1495 76.8049 100.145C77.6857 101.22 78.8915 102.144 80.022 102.945C81.1525 102.144 82.3584 101.22 83.2392 100.145Z" fill="#2C2C2C"/>
<path d="M10.11 7.35942V13.5143L12.9602 10.2976C13.9801 9.15574 14.5111 8.27847 14.553 7.65184L14.5809 7.35942H16.4531L16.4252 7.7911C16.3553 8.5152 15.6847 9.60136 14.3993 11.0496L12.6668 13.0269L15.1538 16.2715C16.2715 17.7197 16.8723 18.8616 16.9282 19.6692L16.9701 20.2401H15.0979L15.0699 19.7945C15.0141 19.0426 14.553 18.0957 13.6728 16.9677L11.4233 14.0574L10.11 15.5474V20.2262H8.23779V7.33154H10.11V7.35942Z" fill="#222222"/>
<path d="M9.16951 28.4175C8.35387 29.4132 8.16049 30.8026 9.05516 31.7124C10.0221 32.6958 11.4938 32.4109 12.3867 31.5028C13.2796 32.4108 14.7512 32.6958 15.7182 31.7124C16.6128 30.8026 16.4194 29.4132 15.6038 28.4175C14.723 27.3423 13.5172 26.4185 12.3867 25.6173C11.2561 26.4185 10.0503 27.3423 9.16951 28.4175Z" fill="#2C2C2C"/>
<path d="M33.7241 62.1462C30.587 65.9759 29.8432 71.3196 33.2843 74.8191C37.0033 78.6014 42.6635 77.5053 46.0977 74.0127C49.532 77.5053 55.1921 78.6014 58.9112 74.8191C62.3522 71.3196 61.6085 65.9759 58.4714 62.1462C55.0837 58.0108 50.4459 54.4576 46.0977 51.3763C41.7496 54.4576 37.1117 58.0108 33.7241 62.1462Z" fill="#2C2C2C"/>
</svg>
