<svg width="368" height="124" viewBox="0 0 368 124" fill="none" xmlns="http://www.w3.org/2000/svg">
<path d="M179.984 119.524C179.644 119.751 179.182 120.005 178.597 120.288C178.012 120.571 177.324 120.807 176.531 120.996C175.758 121.185 174.908 121.279 173.984 121.279C172.399 121.26 170.965 120.977 169.682 120.43C168.418 119.883 167.342 119.137 166.456 118.194C165.569 117.251 164.88 116.166 164.39 114.939C163.918 113.694 163.682 112.373 163.682 110.977C163.682 109.449 163.927 108.043 164.418 106.76C164.927 105.458 165.635 104.335 166.541 103.392C167.446 102.43 168.512 101.684 169.739 101.156C170.984 100.628 172.342 100.364 173.814 100.364C175.041 100.364 176.154 100.534 177.154 100.873C178.154 101.194 179.012 101.581 179.729 102.034L178.625 104.581C178.059 104.203 177.371 103.845 176.559 103.505C175.767 103.166 174.88 102.996 173.899 102.996C172.899 102.996 171.956 103.194 171.069 103.59C170.182 103.986 169.399 104.543 168.72 105.26C168.041 105.977 167.503 106.817 167.107 107.779C166.729 108.722 166.541 109.741 166.541 110.835C166.541 111.949 166.71 112.986 167.05 113.949C167.408 114.892 167.908 115.713 168.55 116.411C169.21 117.109 170.003 117.656 170.927 118.052C171.852 118.449 172.89 118.647 174.041 118.647C175.078 118.647 176.003 118.486 176.814 118.166C177.625 117.845 178.295 117.486 178.824 117.09L179.984 119.524ZM186.022 100.59H188.767V118.42H199.154V121.052H186.022V100.59ZM203.005 121.052L211.948 99.7411H212.118L221.033 121.052H217.892L211.213 104.043L213.165 102.769L205.694 121.052H203.005ZM208.241 113.298H215.854L216.76 115.675H207.448L208.241 113.298ZM236.887 104.241C236.189 103.883 235.425 103.571 234.595 103.307C233.765 103.043 232.953 102.911 232.161 102.911C231.067 102.911 230.189 103.166 229.529 103.675C228.887 104.184 228.567 104.864 228.567 105.713C228.567 106.354 228.774 106.901 229.189 107.354C229.604 107.788 230.152 108.166 230.831 108.486C231.51 108.807 232.218 109.109 232.953 109.392C233.595 109.637 234.227 109.911 234.85 110.213C235.472 110.515 236.029 110.892 236.52 111.345C237.029 111.798 237.425 112.354 237.708 113.015C238.01 113.675 238.161 114.496 238.161 115.477C238.161 116.552 237.887 117.534 237.34 118.42C236.812 119.307 236.048 120.005 235.048 120.515C234.048 121.024 232.859 121.279 231.482 121.279C230.576 121.279 229.708 121.175 228.878 120.968C228.067 120.76 227.312 120.496 226.614 120.175C225.916 119.836 225.293 119.486 224.746 119.128L225.963 116.977C226.416 117.298 226.935 117.609 227.519 117.911C228.104 118.194 228.718 118.43 229.359 118.619C230.001 118.788 230.623 118.873 231.227 118.873C231.869 118.873 232.501 118.76 233.123 118.534C233.765 118.288 234.293 117.92 234.708 117.43C235.123 116.939 235.331 116.288 235.331 115.477C235.331 114.779 235.142 114.203 234.765 113.751C234.406 113.279 233.925 112.883 233.321 112.562C232.718 112.222 232.076 111.92 231.397 111.656C230.755 111.411 230.104 111.147 229.444 110.864C228.784 110.562 228.17 110.203 227.604 109.788C227.038 109.354 226.585 108.826 226.246 108.203C225.906 107.581 225.736 106.826 225.736 105.939C225.736 104.864 225.991 103.93 226.501 103.137C227.029 102.326 227.746 101.694 228.652 101.241C229.557 100.769 230.595 100.515 231.765 100.477C233.086 100.477 234.246 100.637 235.246 100.958C236.265 101.279 237.161 101.675 237.935 102.147L236.887 104.241ZM254.775 104.241C254.077 103.883 253.313 103.571 252.483 103.307C251.653 103.043 250.841 102.911 250.049 102.911C248.954 102.911 248.077 103.166 247.417 103.675C246.775 104.184 246.454 104.864 246.454 105.713C246.454 106.354 246.662 106.901 247.077 107.354C247.492 107.788 248.039 108.166 248.719 108.486C249.398 108.807 250.105 109.109 250.841 109.392C251.483 109.637 252.115 109.911 252.737 110.213C253.36 110.515 253.917 110.892 254.407 111.345C254.917 111.798 255.313 112.354 255.596 113.015C255.898 113.675 256.049 114.496 256.049 115.477C256.049 116.552 255.775 117.534 255.228 118.42C254.7 119.307 253.936 120.005 252.936 120.515C251.936 121.024 250.747 121.279 249.37 121.279C248.464 121.279 247.596 121.175 246.766 120.968C245.954 120.76 245.2 120.496 244.502 120.175C243.803 119.836 243.181 119.486 242.634 119.128L243.851 116.977C244.303 117.298 244.822 117.609 245.407 117.911C245.992 118.194 246.605 118.43 247.247 118.619C247.888 118.788 248.511 118.873 249.115 118.873C249.756 118.873 250.388 118.76 251.011 118.534C251.653 118.288 252.181 117.92 252.596 117.43C253.011 116.939 253.219 116.288 253.219 115.477C253.219 114.779 253.03 114.203 252.653 113.751C252.294 113.279 251.813 112.883 251.209 112.562C250.605 112.222 249.964 111.92 249.285 111.656C248.643 111.411 247.992 111.147 247.332 110.864C246.671 110.562 246.058 110.203 245.492 109.788C244.926 109.354 244.473 108.826 244.134 108.203C243.794 107.581 243.624 106.826 243.624 105.939C243.624 104.864 243.879 103.93 244.388 103.137C244.917 102.326 245.634 101.694 246.539 101.241C247.445 100.769 248.483 100.515 249.653 100.477C250.973 100.477 252.134 100.637 253.134 100.958C254.153 101.279 255.049 101.675 255.822 102.147L254.775 104.241ZM262.078 100.59H264.823V121.052H262.078V100.59ZM287.145 119.524C286.805 119.751 286.343 120.005 285.758 120.288C285.173 120.571 284.484 120.807 283.692 120.996C282.918 121.185 282.069 121.279 281.145 121.279C279.56 121.26 278.126 120.977 276.843 120.43C275.579 119.883 274.503 119.137 273.616 118.194C272.73 117.251 272.041 116.166 271.55 114.939C271.079 113.694 270.843 112.373 270.843 110.977C270.843 109.449 271.088 108.043 271.579 106.76C272.088 105.458 272.796 104.335 273.701 103.392C274.607 102.43 275.673 101.684 276.899 101.156C278.145 100.628 279.503 100.364 280.975 100.364C282.201 100.364 283.315 100.534 284.315 100.873C285.315 101.194 286.173 101.581 286.89 102.034L285.786 104.581C285.22 104.203 284.532 103.845 283.72 103.505C282.928 103.166 282.041 102.996 281.06 102.996C280.06 102.996 279.116 103.194 278.23 103.59C277.343 103.986 276.56 104.543 275.881 105.26C275.201 105.977 274.664 106.817 274.267 107.779C273.89 108.722 273.701 109.741 273.701 110.835C273.701 111.949 273.871 112.986 274.211 113.949C274.569 114.892 275.069 115.713 275.711 116.411C276.371 117.109 277.164 117.656 278.088 118.052C279.013 118.449 280.05 118.647 281.201 118.647C282.239 118.647 283.164 118.486 283.975 118.166C284.786 117.845 285.456 117.486 285.984 117.09L287.145 119.524Z" fill="white"/>
<path d="M31.6803 83.7502H3.15719V71.8767H8.33115V42.657H3.28985V30.9161H31.5477C35.8814 30.9161 39.7177 31.3915 43.0564 32.3422C46.4173 33.2709 49.0485 34.8408 50.95 37.0519C52.8737 39.263 53.8355 42.3032 53.8355 46.1727C53.8355 52.9386 52.0003 57.803 48.3299 60.7659C44.6595 63.7288 39.1538 65.2102 31.813 65.2102C29.9336 65.2102 28.2863 65.0996 26.8712 64.8785V71.8767H31.6803V83.7502ZM26.9375 42.657V54.3979H28.2974C33.3165 54.3979 35.8261 52.1868 35.8261 47.7646C35.8261 46.1284 35.2734 44.8681 34.1678 43.9837C33.0623 43.0992 31.5808 42.657 29.7235 42.657H26.9375Z" fill="white"/>
<path d="M153.22 87.5298H125.658V75.8552H130.965V46.4366H125.658V34.762H152.158V46.4366H147.946V58.4428L156.702 46.4366V34.762H177.365V46.4366H172.788L162.274 59.2056V59.67C165.856 59.67 168.664 60.2891 170.698 61.5273C172.733 62.7434 173.75 64.866 173.75 67.8952V73.2682C173.75 73.9537 173.938 74.5617 174.314 75.0924C174.712 75.6009 175.253 75.8552 175.939 75.8552H179.72V87.5298H167.581C160.151 87.5298 156.437 84.1358 156.437 77.3477V71.5767C156.437 70.4491 156.072 69.3435 155.342 68.2601C154.613 67.1545 153.75 66.6018 152.755 66.6018H147.946V75.8552H153.22V87.5298ZM229.27 65.0429V87.5298H184.728V75.8552H191.129V46.4366H184.728V34.762H229.27V55.7563H220.78L217.596 46.4366H208.11V55.0598H216.601V63.7494H208.11V75.8552H217.596L220.78 65.0429H229.27ZM261.475 87.5298H233.914V75.8552H239.22V46.4366H233.914V34.762H267.81C273.293 34.762 277.317 35.8675 279.882 38.0786C282.469 40.2897 283.763 43.9601 283.763 49.0899C283.763 52.5171 282.801 55.1593 280.877 57.0167C278.954 58.874 276.223 60.1232 272.685 60.7645C275.869 61.273 278.158 62.467 279.551 64.3464C280.966 66.2259 281.673 68.5696 281.673 71.3777V75.6562H289.069V87.5298H278.39C276.112 87.5298 274.277 87.4524 272.884 87.2976C271.491 87.1207 270.386 86.7227 269.568 86.1036C268.772 85.4624 268.108 84.4674 267.578 83.1186C266.782 81.0844 266.384 77.6904 266.384 72.9365C266.384 70.2169 265.941 68.2048 265.057 66.9003C264.173 65.5736 262.558 64.9103 260.215 64.9103H256.202V75.8552H261.475V87.5298ZM256.202 46.4366V57.3815H260.745C263.155 57.3815 264.946 56.9503 266.118 56.088C267.29 55.2257 267.876 53.7111 267.876 51.5442C267.876 49.9522 267.268 48.7029 266.052 47.7964C264.858 46.8898 263.31 46.4366 261.409 46.4366H256.202Z" fill="white"/>
<path d="M85.3448 28.7673L59.4514 54.6608C56.262 57.8501 54.5088 62.0834 54.5088 66.5855C54.5088 75.8892 62.0724 83.4528 71.3761 83.4528C74.8473 83.4528 78.1468 82.3867 80.9397 80.4529V92.2631H89.7499V80.4529C92.5428 82.3867 95.8423 83.4528 99.3135 83.4528C108.617 83.4528 116.181 75.8892 116.181 66.5855C116.181 62.0834 114.428 57.8457 111.238 54.6608L85.3448 28.7673ZM99.3135 74.6425C97.1638 74.6425 95.1418 73.8055 93.6177 72.2813L85.3448 64.0085L77.0719 72.2813C75.5478 73.8055 73.5258 74.6425 71.3761 74.6425C66.9313 74.6425 63.3191 71.0303 63.3191 66.5855C63.3191 64.4358 64.1561 62.4138 65.6802 60.8896L85.3448 41.2251L105.009 60.8896C106.534 62.4138 107.371 64.4358 107.371 66.5855C107.371 71.0303 103.758 74.6425 99.3135 74.6425Z" fill="#CB0114"/>
<path d="M99.3135 74.6425C97.1638 74.6425 95.1418 73.8055 93.6177 72.2813L85.3448 64.0085L77.0719 72.2813C75.5478 73.8055 73.5258 74.6425 71.3761 74.6425C66.9313 74.6425 63.3191 71.0303 63.3191 66.5855C63.3191 64.4358 64.1561 62.4138 65.6802 60.8896L85.3448 41.2251L105.009 60.8896C106.534 62.4138 107.371 64.4358 107.371 66.5855C107.371 71.0303 103.758 74.6425 99.3135 74.6425Z" fill="#CB0114"/>
</svg>
