<svg width="92" height="129" viewBox="0 0 92 129" fill="none" xmlns="http://www.w3.org/2000/svg">
<rect x="0.277344" y="0.497559" width="91.1196" height="127.567" rx="4.17631" fill="white"/>
<rect x="0.277832" y="0.497559" width="91.1196" height="127.567" rx="4.17631" fill="white"/>
<path d="M75.4511 111.88C75.4511 109.907 76.2297 108.63 77.787 108.049L76.5553 105.665H78.5656L79.6274 107.736C80.8591 107.736 81.8642 108.077 82.6428 108.744C83.4215 109.411 83.8037 110.461 83.8037 111.894V117.088C83.8037 118.521 83.4215 119.571 82.6428 120.238C81.8642 120.905 80.8591 121.231 79.6274 121.231C78.3958 121.231 77.3906 120.905 76.612 120.238C75.8333 119.571 75.4511 118.521 75.4511 117.088V111.88ZM77.3481 111.951V117.059C77.3481 118.138 77.5463 118.875 77.9569 119.287C78.3674 119.684 78.9337 119.883 79.6416 119.883C80.3494 119.883 80.9157 119.684 81.3121 119.287C81.7085 118.89 81.9067 118.138 81.9067 117.059V111.951C81.9067 110.816 81.7085 110.049 81.3121 109.652C80.9157 109.255 80.3494 109.056 79.6274 109.056C78.9196 109.056 78.3674 109.255 77.9569 109.652C77.5463 110.064 77.3481 110.83 77.3481 111.951Z" fill="#222222"/>
<path d="M79.6382 96.2916L82.4902 99.6142L79.6382 102.946L76.7862 99.6142L79.6382 96.2916Z" fill="#F24E1E"/>
<path d="M16.2237 16.6826C16.2237 18.655 15.4451 19.9321 13.8878 20.5139L15.1195 22.8978H13.1092L12.0474 20.8261C10.8157 20.8261 9.81061 20.4855 9.03198 19.8186C8.25334 19.1517 7.87109 18.1017 7.87109 16.6685V11.475C7.87109 10.0418 8.25334 8.99177 9.03198 8.32485C9.81061 7.65793 10.8157 7.33154 12.0474 7.33154C13.2791 7.33154 14.2842 7.65793 15.0628 8.32485C15.8415 8.99177 16.2237 10.0418 16.2237 11.475V16.6826ZM14.3267 16.6117V11.5034C14.3267 10.4249 14.1285 9.68705 13.7179 9.27554C13.3074 8.87823 12.7411 8.6796 12.0332 8.6796C11.3254 8.6796 10.7591 8.87823 10.3627 9.27554C9.96634 9.67286 9.76812 10.4249 9.76812 11.5034V16.6117C9.76812 17.7469 9.96634 18.5131 10.3627 18.9105C10.7591 19.3078 11.3254 19.5065 12.0474 19.5065C12.7552 19.5065 13.3074 19.3078 13.7179 18.9105C14.1285 18.499 14.3267 17.7327 14.3267 16.6117Z" fill="#222222"/>
<path d="M12.0361 32.2709L9.18408 28.9483L12.0361 25.6162L14.8881 28.9483L12.0361 32.2709Z" fill="#F24E1E"/>
<path d="M45.7965 76.9677L34.8271 64.1884L45.7965 51.3726L56.7658 64.1884L45.7965 76.9677Z" fill="#F24E1E"/>
</svg>
